<svg xmlns="http://www.w3.org/2000/svg" width="215" height="215" fill="none" viewBox="0 0 215 215"><g clip-path="url(#a)"><path fill="#fff" d="M107.5 215c59.37 0 107.5-48.13 107.5-107.5S166.87 0 107.5 0 0 48.13 0 107.5 48.13 215 107.5 215"/><path fill="#f80" d="M197.66 48.93h-55.42c-3.07 0-6.1.64-8.91 1.89a79 79 0 0 1-31.55 7.06c-13.23.13-25.72-3.5-25.59-5.2.19-2.39 25.5-1.73 25.6-3.75.08-2.05-25.82-3.7-25.86-6.94s26-5.41 25.85-7.69c-.14-2.32-25.83-1.17-26.13-4.07-.22-2.08 12.62-6.59 26.13-6.62 12.83-.03 23.58 4 31.36 8.11a22 22 0 0 0 10.3 2.6l42.93.14A107.2 107.2 0 0 0 107.5 0C48.13 0 0 48.13 0 107.5a107 107 0 0 0 17.89 59.4l54.23-.13c2.57 0 5.04-.9 7.08-2.46 5.74-4.37 15.2-7.23 25.9-7.23 17.5 0 31.67 7.63 31.67 17.03s-14.18 17.03-31.67 17.03c-10.83 0-20.4-2.93-26.1-7.4a11.6 11.6 0 0 0-7.15-2.41h-42.5A107.2 107.2 0 0 0 107.5 215c59.37 0 107.5-48.13 107.5-107.5a107 107 0 0 0-17.34-58.57"/><path fill="#fff" d="M107.5 200.38a92.3 92.3 0 0 1-65.68-27.2 92.3 92.3 0 0 1-27.2-65.68c0-24.8 9.66-48.13 27.2-65.68a92.3 92.3 0 0 1 65.68-27.2 92.3 92.3 0 0 1 65.68 27.2 92.3 92.3 0 0 1 27.2 65.68 92.3 92.3 0 0 1-27.2 65.68 92.3 92.3 0 0 1-65.68 27.2m0-182.22c-49.26 0-89.34 40.08-89.34 89.34s40.08 89.34 89.34 89.34 89.34-40.08 89.34-89.34-40.08-89.34-89.34-89.34"/><path fill="#fff" d="M17.6 105.64q-2.27 0-3.48-1.27a5 5 0 0 1-1.21-3.54V69.45q0-2.25 1.3-3.54a5 5 0 0 1 3.61-1.27 5.6 5.6 0 0 1 3.2.8q1.16.78 2.12 2.6l12.1 21.82h-1.92l12.1-21.82a8 8 0 0 1 2.17-2.6q1.16-.8 3.08-.8 2.32 0 3.54 1.27 1.2 1.27 1.21 3.54v31.38q0 2.27-1.18 3.54-1.2 1.27-3.5 1.27c-1.55 0-2.68-.43-3.48-1.27a5 5 0 0 1-1.22-3.54V81.38h1.19l-9.16 15.83a6 6 0 0 1-1.62 1.87q-.87.63-2.35.62c-.98 0-1.72-.2-2.34-.62a6 6 0 0 1-1.67-1.87l-9.16-15.89h1.36v19.51q0 2.27-1.2 3.54-1.17 1.27-3.5 1.27M68.2 105.08q-2.66 0-4.04-1.39-1.38-1.38-1.38-4.04V70.64q0-2.66 1.38-4.04 1.38-1.4 4.04-1.39h19.23q1.92 0 2.96 1.02 1.05 1.02 1.05 2.94c0 1.28-.35 2.33-1.05 3.03q-1.05 1.05-2.96 1.04H72.67v7.58h13.46q1.98 0 3 1.02 1 1.02 1.01 3c0 1.32-.34 2.27-1.02 2.96q-1 1.05-3 1.05H72.68v8.2h14.76q1.92 0 2.96 1.04 1.05 1.05 1.05 2.97c0 1.28-.35 2.32-1.05 3q-1.05 1.02-2.96 1.02zM102.36 105.64q-2.39 0-3.62-1.3-1.25-1.31-1.25-3.67V69.8a5.4 5.4 0 0 1 1.25-3.8 4.3 4.3 0 0 1 3.34-1.35q1.74 0 2.77.7 1.01.72 2.26 2.3l17.92 22.39h-1.58V69.57q0-2.32 1.22-3.62 1.2-1.3 3.59-1.3 2.37 0 3.61 1.3a5 5 0 0 1 1.25 3.62v31.32q0 2.1-1.16 3.42a3.9 3.9 0 0 1-3.08 1.33 5.6 5.6 0 0 1-3.02-.7 11 11 0 0 1-2.4-2.3L105.57 80.2h1.59v20.47q0 2.37-1.22 3.67-1.2 1.3-3.6 1.3M158 105.76q-4.36 0-7.72-1.14a15 15 0 0 1-5.63-3.3 14 14 0 0 1-3.42-5.49 24 24 0 0 1-1.16-7.77v-18.1q0-2.6 1.36-3.96 1.35-1.35 3.9-1.35c1.7 0 2.88.45 3.79 1.35q1.35 1.36 1.35 3.96v18.2q0 4.42 1.93 6.62 1.91 2.2 5.6 2.2c2.44 0 4.26-.73 5.56-2.2q1.95-2.2 1.95-6.61v-18.2q0-2.6 1.33-3.97 1.33-1.35 3.76-1.35 2.44 0 3.76 1.35 1.33 1.36 1.33 3.96v18.1q0 5.88-2 9.83a13 13 0 0 1-5.94 5.91q-3.93 1.95-9.76 1.95"/><path fill="#3795ff" d="M73.61 150.2q-4.35 0-7.71-1.12a15 15 0 0 1-5.63-3.31 14 14 0 0 1-3.42-5.49q-1.16-3.3-1.16-7.77v-18.1q0-2.6 1.36-3.95 1.35-1.35 3.9-1.36c1.7 0 2.88.46 3.79 1.36q1.35 1.35 1.35 3.96v18.2q0 4.41 1.93 6.62 1.92 2.2 5.6 2.2c2.44 0 4.26-.73 5.56-2.2q1.95-2.2 1.95-6.62v-18.2q0-2.61 1.33-3.96t3.76-1.36 3.76 1.36q1.33 1.35 1.33 3.96v18.09q0 5.88-2 9.84a13 13 0 0 1-5.94 5.9q-3.93 1.95-9.76 1.96M103.13 150.1q-2.38 0-3.62-1.3t-1.24-3.68v-30.87a5.4 5.4 0 0 1 1.24-3.8 4.3 4.3 0 0 1 3.34-1.35q1.75 0 2.77.7 1.02.72 2.26 2.3l17.93 22.39h-1.59v-20.47q0-2.31 1.22-3.62 1.2-1.3 3.59-1.3 2.37 0 3.62 1.3a5 5 0 0 1 1.24 3.62v31.33a5 5 0 0 1-1.16 3.42 3.9 3.9 0 0 1-3.08 1.32 5.6 5.6 0 0 1-3.02-.7 11 11 0 0 1-2.4-2.29l-17.88-22.45h1.59v20.47q0 2.38-1.22 3.68-1.2 1.3-3.6 1.3M146.55 149.53q-2.65 0-4.04-1.39-1.38-1.38-1.38-4.04v-29q0-2.67 1.38-4.05 1.39-1.38 4.04-1.38h19.23q1.92 0 2.97 1.01 1.05 1.02 1.04 2.94c0 1.29-.35 2.33-1.04 3.03q-1.06 1.05-2.97 1.04h-14.76v7.58h13.46q1.98 0 3 1.02 1.01 1.02 1.01 3c0 1.32-.34 2.27-1.01 2.97q-1.02 1.04-3 1.04h-13.46v8.2h14.76q1.92 0 2.97 1.05 1.05 1.04 1.04 2.96c0 1.29-.35 2.32-1.04 3q-1.06 1.02-2.97 1.02zM190.77 150.1q-2.55 0-3.9-1.42a5.4 5.4 0 0 1-1.36-3.9v-26.63h-8.88q-2.09 0-3.2-1.13a4.4 4.4 0 0 1-1.1-3.17q0-2.04 1.1-3.11t3.2-1.07h28.16q2.14 0 3.22 1.07 1.08 1.08 1.08 3.11c0 1.36-.36 2.46-1.08 3.2q-1.08 1.1-3.22 1.1h-8.88v26.63q0 2.49-1.3 3.9t-3.84 1.41"/></g><defs><clipPath id="a"><path fill="#fff" d="M0 0h215v215H0z"/></clipPath></defs></svg>